# xmcd
#
# Track frame offsets:
#	150
#	11947
#	23332
#	41877
#	54177
#	66897
#	79130
#	90835
#	103265
#	120320
#
# Disc length: 1843 seconds
#
# Revision: 0
# Processed by: cddbd v1.5.1PL0 Copyright (c) Steve Scherf et al.
# Submitted via: EasyCDDAExtractor 7.1.3.1
#
DISCID=7107310a
DTITLE=Jonny Cash - Ring of Fire
DYEAR=1900
DGENRE=Country
TTITLE0=Ring of Fire
TTITLE1=Big River
TTITLE2=Sunday Mornin' Comin' Down
TTITLE3=I Walk the Line
TTITLE4=Folsom Prison Blues
TTITLE5=Understand Your Man
TTITLE6=I Still Miss Someone
TTITLE7=Jackson (With June Carter)
TTITLE8=A Boy Named Sue
TTITLE9=One Piece At A Time
EXTD=
EXTT0=
EXTT1=
EXTT2=
EXTT3=
EXTT4=
EXTT5=
EXTT6=
EXTT7=
EXTT8=
EXTT9=
PLAYORDER=
